<svg width="65" height="65" viewBox="0 0 65 65" fill="none" xmlns="http://www.w3.org/2000/svg">
<path fill-rule="evenodd" clip-rule="evenodd" d="M8.125 54.8438V28.4375H12.1875V54.8438C12.1875 55.3825 12.4015 55.8991 12.7824 56.2801C13.1634 56.661 13.68 56.875 14.2188 56.875H50.7812C51.32 56.875 51.8366 56.661 52.2176 56.2801C52.5985 55.8991 52.8125 55.3825 52.8125 54.8438V28.4375H56.875V54.8438C56.875 56.4599 56.233 58.0099 55.0902 59.1527C53.9474 60.2955 52.3974 60.9375 50.7812 60.9375H14.2188C12.6026 60.9375 11.0526 60.2955 9.90982 59.1527C8.76702 58.0099 8.125 56.4599 8.125 54.8438ZM52.8125 10.1562V24.375L44.6875 16.25V10.1562C44.6875 9.61753 44.9015 9.10087 45.2824 8.71994C45.6634 8.33901 46.18 8.125 46.7188 8.125H50.7812C51.32 8.125 51.8366 8.33901 52.2176 8.71994C52.5985 9.10087 52.8125 9.61753 52.8125 10.1562Z" fill="#0145B2"/>
<path fill-rule="evenodd" clip-rule="evenodd" d="M29.6278 6.09374C30.3896 5.33214 31.4228 4.9043 32.5 4.9043C33.5772 4.9043 34.6104 5.33214 35.3722 6.09374L62.3756 33.0931C62.757 33.4745 62.9713 33.9918 62.9713 34.5312C62.9713 35.0706 62.757 35.588 62.3756 35.9694C61.9942 36.3508 61.4769 36.5651 60.9375 36.5651C60.3981 36.5651 59.8808 36.3508 59.4994 35.9694L32.5 8.96593L5.50063 35.9694C5.11921 36.3508 4.6019 36.5651 4.0625 36.5651C3.5231 36.5651 3.00579 36.3508 2.62438 35.9694C2.24296 35.588 2.02869 35.0706 2.02869 34.5312C2.02869 33.9918 2.24296 33.4745 2.62438 33.0931L29.6278 6.09374Z" fill="#0145B2"/>
</svg>
