<svg width="65" height="65" viewBox="0 0 65 65" fill="none" xmlns="http://www.w3.org/2000/svg">
<path d="M8.12499 35.2083H10.8333V54.1667C10.8333 57.154 13.2627 59.5833 16.25 59.5833H48.75C51.7373 59.5833 54.1667 57.154 54.1667 54.1667V35.2083H56.875C57.4106 35.2082 57.9341 35.0493 58.3794 34.7517C58.8246 34.4541 59.1717 34.0312 59.3766 33.5364C59.5816 33.0416 59.6352 32.4971 59.5307 31.9718C59.4263 31.4465 59.1684 30.964 58.7898 30.5852L34.4148 6.21022C34.1635 5.9585 33.865 5.75879 33.5365 5.62253C33.2079 5.48627 32.8557 5.41614 32.5 5.41614C32.1443 5.41614 31.7921 5.48627 31.4635 5.62253C31.135 5.75879 30.8365 5.9585 30.5852 6.21022L6.2102 30.5852C5.83155 30.964 5.5737 31.4465 5.46925 31.9718C5.36479 32.4971 5.41843 33.0416 5.62336 33.5364C5.8283 34.0312 6.17535 34.4541 6.62063 34.7517C7.0659 35.0493 7.58942 35.2082 8.12499 35.2083ZM32.5 11.9546L48.75 28.2046V40.625L48.7527 54.1667H16.25V28.2046L32.5 11.9546Z" fill="#0145B2"/>
<path d="M32.5 48.75C42.529 48.75 45.7735 39.1652 45.9062 38.7589L40.7604 37.077C40.7387 37.1393 38.6452 43.3333 32.5 43.3333C26.4387 43.3333 24.3208 37.3181 24.2369 37.0608L19.0938 38.7589C19.2265 39.1652 22.471 48.75 32.5 48.75Z" fill="#0145B2"/>
</svg>
