<svg width="50" height="50" viewBox="0 0 50 50" fill="none" xmlns="http://www.w3.org/2000/svg">
<path d="M0 4.6875C0 3.4443 0.49386 2.25201 1.37294 1.37294C2.25201 0.49386 3.4443 0 4.6875 0L45.3125 0C46.5557 0 47.748 0.49386 48.6271 1.37294C49.5061 2.25201 50 3.4443 50 4.6875V45.3125C50 46.5557 49.5061 47.748 48.6271 48.6271C47.748 49.5061 46.5557 50 45.3125 50H4.6875C3.4443 50 2.25201 49.5061 1.37294 48.6271C0.49386 47.748 0 46.5557 0 45.3125L0 4.6875ZM4.6875 3.125C4.2731 3.125 3.87567 3.28962 3.58265 3.58265C3.28962 3.87567 3.125 4.2731 3.125 4.6875V15.625H15.625V3.125H4.6875ZM15.625 18.75H3.125V31.25H15.625V18.75ZM18.75 31.25H31.25V18.75H18.75V31.25ZM15.625 34.375H3.125V45.3125C3.125 45.7269 3.28962 46.1243 3.58265 46.4174C3.87567 46.7104 4.2731 46.875 4.6875 46.875H15.625V34.375ZM18.75 34.375V46.875H31.25V34.375H18.75ZM34.375 34.375V46.875H45.3125C45.7269 46.875 46.1243 46.7104 46.4174 46.4174C46.7104 46.1243 46.875 45.7269 46.875 45.3125V34.375H34.375ZM34.375 31.25H46.875V18.75H34.375V31.25ZM34.375 15.625H46.875V4.6875C46.875 4.2731 46.7104 3.87567 46.4174 3.58265C46.1243 3.28962 45.7269 3.125 45.3125 3.125H34.375V15.625ZM31.25 15.625V3.125H18.75V15.625H31.25Z" fill="#0145B2"/>
</svg>
