<svg width="65" height="65" viewBox="0 0 65 65" fill="none" xmlns="http://www.w3.org/2000/svg">
<path d="M12.1875 6.09375V58.9062H52.8125V6.09375H12.1875ZM16.25 10.1562H48.75V54.8438H16.25V10.1562ZM32.5 16.25C25.7969 16.25 20.3125 21.7344 20.3125 28.4375C20.3125 35.1406 25.7969 40.625 32.5 40.625C39.2031 40.625 44.6875 35.1406 44.6875 28.4375C44.6875 21.7344 39.2031 16.25 32.5 16.25ZM33.8975 20.5034C34.8806 20.67 35.8008 20.9706 36.6255 21.4561L36.7534 22.9145L35.8008 22.5347L35.0391 23.1684L35.167 25.0088L37.1333 24.44L39.5464 25.1997L38.9106 26.2783L37.4522 25.3906L35.8638 25.6445L34.3403 26.7881L33.4527 29.4531L35.165 30.8506C35.165 30.8506 36.9748 30.5317 37.0703 30.5317C37.1658 30.5317 37.832 32.1831 37.832 32.1831L36.8164 35.293C35.5253 36.113 34.0295 36.553 32.5 36.5625C32.0247 36.5625 31.5555 36.4508 31.1025 36.3716L30.7227 35.7378L31.6753 32.1831L28.0577 29.4531H24.6919L24.438 28.9453C24.4298 28.7706 24.375 28.6122 24.375 28.4375C24.375 28.0008 24.438 27.5803 24.503 27.168L26.2153 25.8355L29.833 24.1211L29.2642 21.773L30.8486 21.4561L31.5473 22.4717L34.2773 21.9639L33.8975 20.5034ZM26.5342 33.9605H27.168L28.3745 35.4189C27.6929 35.0256 27.0728 34.5342 26.5342 33.9605V33.9605ZM20.3125 44.6875V48.75H44.6875V44.6875H20.3125Z" fill="#0145B2"/>
</svg>
