<svg width="65" height="65" viewBox="0 0 65 65" fill="none" xmlns="http://www.w3.org/2000/svg">
<path d="M51.4583 5.41663H24.375C21.3877 5.41663 18.9583 7.846 18.9583 10.8333V27.0833H13.5417C10.5544 27.0833 8.125 29.5127 8.125 32.5V56.875C8.125 57.5933 8.41034 58.2821 8.91825 58.79C9.42616 59.298 10.115 59.5833 10.8333 59.5833H54.1667C54.885 59.5833 55.5738 59.298 56.0817 58.79C56.5897 58.2821 56.875 57.5933 56.875 56.875V10.8333C56.875 7.846 54.4456 5.41663 51.4583 5.41663ZM13.5417 32.5H29.7917V54.1666H13.5417V32.5ZM51.4583 54.1666H35.2083V32.5C35.2083 29.5127 32.779 27.0833 29.7917 27.0833H24.375V10.8333H51.4583V54.1666Z" fill="#0145B2"/>
<path d="M29.7917 16.25H35.2084V21.6667H29.7917V16.25ZM40.625 16.25H46.0417V21.6667H40.625V16.25ZM40.625 27.1673H46.0417V32.5H40.625V27.1673ZM40.625 37.9167H46.0417V43.3333H40.625V37.9167ZM18.9584 37.9194H24.375V43.336H18.9584V37.9194Z" fill="#0145B2"/>
</svg>
