<svg width="65" height="65" viewBox="0 0 65 65" fill="none" xmlns="http://www.w3.org/2000/svg">
<path d="M14.2188 10.1562V24.8828C11.4806 25.5023 8.97406 26.6764 6.85547 28.3745L9.39453 31.5473C11.9142 29.5254 15.0506 28.4278 18.2812 28.4375C26.1605 28.4375 32.5 34.777 32.5 42.6562H41.7686C41.0299 43.8833 40.6348 45.2865 40.625 46.7188C40.625 51.1875 44.2812 54.8438 48.75 54.8438C53.2188 54.8438 56.875 51.1875 56.875 46.7188C56.875 44.6327 56.0259 42.768 54.7158 41.3237L58.7783 31.2305L58.9062 30.8486V26.4062H48.75V20.3125C48.75 19.1628 49.6316 18.2812 50.7812 18.2812V14.2188C47.4398 14.2188 44.6875 16.9711 44.6875 20.3125V26.4062H37.958L32.372 11.4888L31.8642 10.1562H14.2188ZM18.2812 14.2188H29.0733L34.6592 29.1362L35.167 30.4688H54.6528L51.417 38.5938H36.0547C34.19 30.4769 26.9547 24.375 18.2812 24.375V14.2188ZM18.2812 30.4688C11.5781 30.4688 6.09375 35.9531 6.09375 42.6562C6.09375 49.3594 11.5781 54.8438 18.2812 54.8438C24.9844 54.8438 30.4688 49.3594 30.4688 42.6562C30.4688 35.9531 24.9844 30.4688 18.2812 30.4688ZM18.2812 34.5312C22.7967 34.5312 26.4062 38.1408 26.4062 42.6562C26.4062 47.1717 22.7967 50.7812 18.2812 50.7812C13.7658 50.7812 10.1562 47.1717 10.1562 42.6562C10.1562 38.1408 13.7658 34.5312 18.2812 34.5312ZM18.2812 38.5938C17.2038 38.5938 16.1705 39.0218 15.4086 39.7836C14.6468 40.5455 14.2188 41.5788 14.2188 42.6562C14.2188 43.7337 14.6468 44.767 15.4086 45.5289C16.1705 46.2907 17.2038 46.7187 18.2812 46.7188C19.3587 46.7188 20.392 46.2907 21.1539 45.5289C21.9157 44.767 22.3438 43.7337 22.3438 42.6562C22.3438 41.5788 21.9157 40.5455 21.1539 39.7836C20.392 39.0218 19.3587 38.5938 18.2812 38.5938ZM48.75 42.6562C51.0189 42.6562 52.8125 44.4498 52.8125 46.7188C52.8125 48.9877 51.0189 50.7812 48.75 50.7812C46.4811 50.7812 44.6875 48.9877 44.6875 46.7188C44.6875 44.4498 46.4811 42.6562 48.75 42.6562Z" fill="#0145B2"/>
</svg>
